<svg width="115" height="125" viewBox="0 0 115 125" fill="none" xmlns="http://www.w3.org/2000/svg">
<path opacity="0.253397" fill-rule="evenodd" clip-rule="evenodd" d="M20.5323 89.3528C20.5323 89.3528 21.1082 86.1717 23.373 93.6524C25.6378 101.133 51.247 117.506 59.8195 104.246C68.392 90.9864 80.5117 105.866 88.8837 101.886C97.2557 97.9066 98.5818 92.6546 92.3415 79.9996C86.1012 67.3447 101.451 51.9241 86.1501 42.0102C70.8487 32.0963 82.6944 34.5318 82.6944 34.5318L82.6164 75.007L62.1341 93.5764L20.5323 89.3528Z" fill="url(#paint0_linear)"/>
<path opacity="0.518059" fill-rule="evenodd" clip-rule="evenodd" d="M81.2609 49.9565C81.2609 49.9565 79.4817 49.853 83.4216 48.0882C87.3615 46.3234 94.5932 31.0012 86.7616 27.1452C78.93 23.2892 86.2534 15.5536 83.5123 11.1784C80.7712 6.8033 77.8086 6.42421 71.3059 10.7464C64.8032 15.0686 52.2582 3.52445 47.8655 12.6882C43.4728 21.852 50.9343 10.7262 50.9343 10.7262L69.2298 16.4818L80.7686 26.5856L81.2609 49.9565Z" fill="url(#paint1_linear)"/>
<path d="M34.3809 52.5162C33.6289 52.1162 33.2529 51.4882 33.2529 50.6322C33.2529 50.2002 33.3649 49.8082 33.5889 49.4562C33.8129 49.0962 34.1529 48.8122 34.6089 48.6042C35.0649 48.3882 35.6249 48.2802 36.2889 48.2802C36.9529 48.2802 37.5089 48.3882 37.9569 48.6042C38.4129 48.8122 38.7529 49.0962 38.9769 49.4562C39.2009 49.8082 39.3129 50.2002 39.3129 50.6322C39.3129 51.0642 39.2089 51.4402 39.0009 51.7602C38.8009 52.0802 38.5289 52.3322 38.1849 52.5162C38.6169 52.7242 38.9489 53.0122 39.1809 53.3802C39.4129 53.7402 39.5289 54.1642 39.5289 54.6522C39.5289 55.2202 39.3849 55.7122 39.0969 56.1282C38.8089 56.5362 38.4169 56.8482 37.9209 57.0642C37.4329 57.2802 36.8889 57.3882 36.2889 57.3882C35.6889 57.3882 35.1409 57.2802 34.6449 57.0642C34.1569 56.8482 33.7689 56.5362 33.4809 56.1282C33.1929 55.7122 33.0489 55.2202 33.0489 54.6522C33.0489 54.1562 33.1649 53.7282 33.3969 53.3682C33.6289 53.0002 33.9569 52.7162 34.3809 52.5162ZM37.3209 50.9442C37.3209 50.6162 37.2249 50.3642 37.0329 50.1882C36.8489 50.0042 36.6009 49.9122 36.2889 49.9122C35.9769 49.9122 35.7249 50.0042 35.5329 50.1882C35.3489 50.3722 35.2569 50.6282 35.2569 50.9562C35.2569 51.2682 35.3529 51.5162 35.5449 51.7002C35.7369 51.8762 35.9849 51.9642 36.2889 51.9642C36.5929 51.9642 36.8409 51.8722 37.0329 51.6882C37.2249 51.5042 37.3209 51.2562 37.3209 50.9442ZM36.2889 53.4042C35.9129 53.4042 35.6089 53.5082 35.3769 53.7162C35.1449 53.9162 35.0289 54.1962 35.0289 54.5562C35.0289 54.8922 35.1409 55.1682 35.3649 55.3842C35.5969 55.6002 35.9049 55.7082 36.2889 55.7082C36.6729 55.7082 36.9729 55.6002 37.1889 55.3842C37.4129 55.1682 37.5249 54.8922 37.5249 54.5562C37.5249 54.2042 37.4089 53.9242 37.1769 53.7162C36.9529 53.5082 36.6569 53.4042 36.2889 53.4042ZM46.3141 49.9962L43.3021 57.2202H41.2021L44.2501 50.2242H40.5181V48.4722H46.3141V49.9962ZM46.976 50.6682C46.976 50.0202 47.16 49.5202 47.528 49.1682C47.904 48.8162 48.388 48.6402 48.98 48.6402C49.572 48.6402 50.052 48.8162 50.42 49.1682C50.788 49.5202 50.972 50.0202 50.972 50.6682C50.972 51.3162 50.788 51.8162 50.42 52.1682C50.052 52.5202 49.572 52.6962 48.98 52.6962C48.388 52.6962 47.904 52.5202 47.528 52.1682C47.16 51.8162 46.976 51.3162 46.976 50.6682ZM55.124 48.7722L50.504 57.2202H48.524L53.144 48.7722H55.124ZM48.968 49.8402C48.584 49.8402 48.392 50.1162 48.392 50.6682C48.392 51.2122 48.584 51.4842 48.968 51.4842C49.152 51.4842 49.296 51.4162 49.4 51.2802C49.504 51.1442 49.556 50.9402 49.556 50.6682C49.556 50.1162 49.36 49.8402 48.968 49.8402ZM52.688 55.3242C52.688 54.6762 52.872 54.1762 53.24 53.8242C53.608 53.4722 54.088 53.2962 54.68 53.2962C55.272 53.2962 55.752 53.4722 56.12 53.8242C56.488 54.1762 56.672 54.6762 56.672 55.3242C56.672 55.9722 56.488 56.4722 56.12 56.8242C55.752 57.1762 55.272 57.3522 54.68 57.3522C54.088 57.3522 53.608 57.1762 53.24 56.8242C52.872 56.4722 52.688 55.9722 52.688 55.3242ZM54.668 54.4962C54.484 54.4962 54.34 54.5642 54.236 54.7002C54.14 54.8362 54.092 55.0442 54.092 55.3242C54.092 55.8682 54.284 56.1402 54.668 56.1402C54.852 56.1402 54.996 56.0722 55.1 55.9362C55.204 55.8002 55.256 55.5962 55.256 55.3242C55.256 55.0522 55.204 54.8482 55.1 54.7122C54.996 54.5682 54.852 54.4962 54.668 54.4962Z" fill="url(#paint2_linear)"/>
<circle cx="45.2256" cy="54.271" r="40.2256" stroke="#FAA9C6" stroke-width="10"/>
<path d="M42.5029 14.1377C51.788 13.5078 61.0042 16.1168 68.5812 21.5203C76.1583 26.9237 81.6273 34.7873 84.0565 43.771C86.4858 52.7548 85.7248 62.3029 81.9034 70.7885C78.082 79.2741 71.4365 86.1722 63.0993 90.3074C54.7621 94.4426 45.249 95.559 36.1809 93.4665C27.1128 91.3739 19.0508 86.2019 13.3685 78.8316C7.68631 71.4613 4.7354 62.3488 5.01863 53.0467C5.30186 43.7447 8.8017 34.8286 14.9218 27.8176" stroke="url(#paint3_linear)" stroke-width="10" stroke-linecap="round"/>
<defs>
<linearGradient id="paint0_linear" x1="23.6202" y1="50.9568" x2="143.616" y2="95.3234" gradientUnits="userSpaceOnUse">
<stop stop-color="#FD749B"/>
<stop offset="1" stop-color="#281AC8"/>
</linearGradient>
<linearGradient id="paint1_linear" x1="59.2583" y1="50.6383" x2="75.9898" y2="-18.8295" gradientUnits="userSpaceOnUse">
<stop stop-color="#FD749B"/>
<stop offset="1" stop-color="#281AC8"/>
</linearGradient>
<linearGradient id="paint2_linear" x1="12.0112" y1="51.853" x2="21.7523" y2="80.7119" gradientUnits="userSpaceOnUse">
<stop stop-color="#FC58B3"/>
<stop offset="1" stop-color="#FEAE68"/>
</linearGradient>
<linearGradient id="paint3_linear" x1="49.7481" y1="-5.19226" x2="54.8512" y2="155.04" gradientUnits="userSpaceOnUse">
<stop stop-color="#FD749B"/>
<stop offset="1" stop-color="#281AC8"/>
</linearGradient>
</defs>
</svg>
