<svg width="115" height="124" viewBox="0 0 115 124" fill="none" xmlns="http://www.w3.org/2000/svg">
<path opacity="0.253397" fill-rule="evenodd" clip-rule="evenodd" d="M20.3638 88.618C20.3638 88.618 20.935 85.4629 23.1812 92.8822C25.4274 100.301 50.8263 116.54 59.3284 103.389C67.8304 90.2381 79.8505 104.995 88.1538 101.048C96.457 97.1015 97.7722 91.8926 91.5832 79.3416C85.3942 66.7906 100.618 51.4967 85.4426 41.6642C70.2669 31.8318 82.0153 34.2473 82.0153 34.2473L81.938 74.39L61.6239 92.8069L20.3638 88.618Z" fill="url(#paint0_linear)"/>
<path opacity="0.518059" fill-rule="evenodd" clip-rule="evenodd" d="M80.5929 49.5462C80.5929 49.5462 78.8284 49.4435 82.7359 47.6932C86.6435 45.9429 93.8157 30.7466 86.0485 26.9222C78.2812 23.0979 85.5445 15.4258 82.8259 11.0866C80.1073 6.74742 77.169 6.37144 70.7197 10.6581C64.2704 14.9448 51.8285 3.4955 47.4719 12.584C43.1153 21.6725 50.5154 10.6381 50.5154 10.6381L68.6607 16.3464L80.1047 26.3673L80.5929 49.5462Z" fill="url(#paint1_linear)"/>
<path d="M26.7793 50.0054V48.0974H30.1033V56.8574H27.9673V50.0054H26.7793ZM37.6751 49.8854H33.9311V51.5414C34.0911 51.3654 34.3151 51.2214 34.6031 51.1094C34.8911 50.9974 35.2031 50.9414 35.5391 50.9414C36.1391 50.9414 36.6351 51.0774 37.0271 51.3494C37.4271 51.6214 37.7191 51.9734 37.9031 52.4054C38.0871 52.8374 38.1791 53.3054 38.1791 53.8094C38.1791 54.7454 37.9151 55.4894 37.3871 56.0414C36.8591 56.5854 36.1151 56.8574 35.1551 56.8574C34.5151 56.8574 33.9591 56.7494 33.4871 56.5334C33.0151 56.3094 32.6511 56.0014 32.3951 55.6094C32.1391 55.2174 31.9991 54.7654 31.9751 54.2534H33.9791C34.0271 54.5014 34.1431 54.7094 34.3271 54.8774C34.5111 55.0374 34.7631 55.1174 35.0831 55.1174C35.4591 55.1174 35.7391 54.9974 35.9231 54.7574C36.1071 54.5174 36.1991 54.1974 36.1991 53.7974C36.1991 53.4054 36.1031 53.1054 35.9111 52.8974C35.7191 52.6894 35.4391 52.5854 35.0711 52.5854C34.7991 52.5854 34.5751 52.6534 34.3991 52.7894C34.2231 52.9174 34.1071 53.0894 34.0511 53.3054H32.0711V48.0854H37.6751V49.8854ZM39.3118 52.3574C39.3118 50.9814 39.5758 49.8974 40.1038 49.1054C40.6398 48.3134 41.4998 47.9174 42.6838 47.9174C43.8678 47.9174 44.7238 48.3134 45.2518 49.1054C45.7878 49.8974 46.0558 50.9814 46.0558 52.3574C46.0558 53.7494 45.7878 54.8414 45.2518 55.6334C44.7238 56.4254 43.8678 56.8214 42.6838 56.8214C41.4998 56.8214 40.6398 56.4254 40.1038 55.6334C39.5758 54.8414 39.3118 53.7494 39.3118 52.3574ZM44.0398 52.3574C44.0398 51.5494 43.9518 50.9294 43.7758 50.4974C43.5998 50.0574 43.2358 49.8374 42.6838 49.8374C42.1318 49.8374 41.7678 50.0574 41.5918 50.4974C41.4158 50.9294 41.3278 51.5494 41.3278 52.3574C41.3278 52.9014 41.3598 53.3534 41.4238 53.7134C41.4878 54.0654 41.6158 54.3534 41.8078 54.5774C42.0078 54.7934 42.2998 54.9014 42.6838 54.9014C43.0678 54.9014 43.3558 54.7934 43.5478 54.5774C43.7478 54.3534 43.8798 54.0654 43.9438 53.7134C44.0078 53.3534 44.0398 52.9014 44.0398 52.3574ZM47.1399 52.3574C47.1399 50.9814 47.4039 49.8974 47.9319 49.1054C48.4679 48.3134 49.3279 47.9174 50.5119 47.9174C51.6959 47.9174 52.5519 48.3134 53.0799 49.1054C53.6159 49.8974 53.8839 50.9814 53.8839 52.3574C53.8839 53.7494 53.6159 54.8414 53.0799 55.6334C52.5519 56.4254 51.6959 56.8214 50.5119 56.8214C49.3279 56.8214 48.4679 56.4254 47.9319 55.6334C47.4039 54.8414 47.1399 53.7494 47.1399 52.3574ZM51.8679 52.3574C51.8679 51.5494 51.7799 50.9294 51.6039 50.4974C51.4279 50.0574 51.0639 49.8374 50.5119 49.8374C49.9599 49.8374 49.5959 50.0574 49.4199 50.4974C49.2439 50.9294 49.1559 51.5494 49.1559 52.3574C49.1559 52.9014 49.1879 53.3534 49.2519 53.7134C49.3159 54.0654 49.4439 54.3534 49.6359 54.5774C49.8359 54.7934 50.1279 54.9014 50.5119 54.9014C50.8959 54.9014 51.1839 54.7934 51.3759 54.5774C51.5759 54.3534 51.7079 54.0654 51.7719 53.7134C51.8359 53.3534 51.8679 52.9014 51.8679 52.3574ZM54.968 52.3574C54.968 50.9814 55.232 49.8974 55.76 49.1054C56.296 48.3134 57.156 47.9174 58.34 47.9174C59.524 47.9174 60.38 48.3134 60.908 49.1054C61.444 49.8974 61.712 50.9814 61.712 52.3574C61.712 53.7494 61.444 54.8414 60.908 55.6334C60.38 56.4254 59.524 56.8214 58.34 56.8214C57.156 56.8214 56.296 56.4254 55.76 55.6334C55.232 54.8414 54.968 53.7494 54.968 52.3574ZM59.696 52.3574C59.696 51.5494 59.608 50.9294 59.432 50.4974C59.256 50.0574 58.892 49.8374 58.34 49.8374C57.788 49.8374 57.424 50.0574 57.248 50.4974C57.072 50.9294 56.984 51.5494 56.984 52.3574C56.984 52.9014 57.016 53.3534 57.08 53.7134C57.144 54.0654 57.272 54.3534 57.464 54.5774C57.664 54.7934 57.956 54.9014 58.34 54.9014C58.724 54.9014 59.012 54.7934 59.204 54.5774C59.404 54.3534 59.536 54.0654 59.6 53.7134C59.664 53.3534 59.696 52.9014 59.696 52.3574Z" fill="url(#paint2_linear)"/>
<circle cx="44.8541" cy="53.8248" r="39.8541" stroke="#FAA9C6" stroke-width="10"/>
<path d="M42.1566 14.0621C49.2976 13.5777 56.4373 15.0252 62.8257 18.2528C69.2141 21.4803 74.6155 26.3687 78.4624 32.4045C82.3093 38.4403 84.4597 45.4006 84.6879 52.5544C84.916 59.7082 83.2134 66.7914 79.7589 73.06C76.3044 79.3287 71.2255 84.5513 65.0558 88.1793C58.886 91.8074 51.853 93.707 44.6956 93.6785C37.5382 93.6501 30.5206 91.6946 24.3799 88.0176C18.2391 84.3407 13.2019 79.0778 9.79737 72.7819" stroke="url(#paint3_linear)" stroke-width="10" stroke-linecap="round"/>
<defs>
<linearGradient id="paint0_linear" x1="23.4264" y1="50.5373" x2="142.437" y2="94.5395" gradientUnits="userSpaceOnUse">
<stop stop-color="#FD749B"/>
<stop offset="1" stop-color="#281AC8"/>
</linearGradient>
<linearGradient id="paint1_linear" x1="58.7711" y1="50.2224" x2="75.3651" y2="-18.6748" gradientUnits="userSpaceOnUse">
<stop stop-color="#FD749B"/>
<stop offset="1" stop-color="#281AC8"/>
</linearGradient>
<linearGradient id="paint2_linear" x1="11.9125" y1="51.4275" x2="21.5736" y2="80.0494" gradientUnits="userSpaceOnUse">
<stop stop-color="#FC58B3"/>
<stop offset="1" stop-color="#FEAE68"/>
</linearGradient>
<linearGradient id="paint3_linear" x1="49.3395" y1="-5.15002" x2="54.4006" y2="153.766" gradientUnits="userSpaceOnUse">
<stop stop-color="#FD749B"/>
<stop offset="1" stop-color="#281AC8"/>
</linearGradient>
</defs>
</svg>
