<svg width="112" height="122" viewBox="0 0 112 122" fill="none" xmlns="http://www.w3.org/2000/svg">
<path opacity="0.253397" fill-rule="evenodd" clip-rule="evenodd" d="M19.9026 86.6114C19.9026 86.6114 20.4609 83.5278 22.6562 90.779C24.8515 98.0303 49.6751 113.901 57.9846 101.048C66.2941 88.1949 78.042 102.618 86.1571 98.7602C94.2723 94.9028 95.5577 89.8119 89.5089 77.5451C83.46 65.2784 98.3393 50.3309 83.5074 40.7212C68.6754 31.1114 80.1577 33.4722 80.1577 33.4722L80.0821 72.7057L60.2282 90.7054L19.9026 86.6114Z" fill="url(#paint0_linear)"/>
<path opacity="0.518059" fill-rule="evenodd" clip-rule="evenodd" d="M78.7675 48.424C78.7675 48.424 77.043 48.3237 80.862 46.613C84.681 44.9024 91.6908 30.0502 84.0995 26.3125C76.5082 22.5748 83.6069 15.0765 80.9499 10.8356C78.2929 6.59464 75.4212 6.22718 69.118 10.4168C62.8148 14.6063 50.6546 3.41638 46.3967 12.299C42.1388 21.1817 49.3713 10.3972 49.3713 10.3972L67.1056 15.9762L78.2903 25.7701L78.7675 48.424Z" fill="url(#paint1_linear)"/>
<path d="M24.6032 57.44V55.784L28.3952 50.36H30.6872V55.664H31.6712V57.44H30.6872V59H28.6352V57.44H24.6032ZM28.7792 52.616L26.7632 55.664H28.7792V52.616ZM32.7483 52.712C32.7803 51.856 33.0603 51.196 33.5883 50.732C34.1163 50.268 34.8323 50.036 35.7363 50.036C36.3363 50.036 36.8483 50.14 37.2723 50.348C37.7043 50.556 38.0283 50.84 38.2443 51.2C38.4683 51.56 38.5803 51.964 38.5803 52.412C38.5803 52.94 38.4483 53.372 38.1843 53.708C37.9203 54.036 37.6123 54.26 37.2603 54.38V54.428C37.7163 54.58 38.0763 54.832 38.3403 55.184C38.6043 55.536 38.7363 55.988 38.7363 56.54C38.7363 57.036 38.6203 57.476 38.3883 57.86C38.1643 58.236 37.8323 58.532 37.3923 58.748C36.9603 58.964 36.4443 59.072 35.8443 59.072C34.8843 59.072 34.1163 58.836 33.5403 58.364C32.9723 57.892 32.6723 57.18 32.6403 56.228H34.6323C34.6403 56.58 34.7403 56.86 34.9323 57.068C35.1243 57.268 35.4043 57.368 35.7723 57.368C36.0843 57.368 36.3243 57.28 36.4923 57.104C36.6683 56.92 36.7563 56.68 36.7563 56.384C36.7563 56 36.6323 55.724 36.3843 55.556C36.1443 55.38 35.7563 55.292 35.2203 55.292H34.8363V53.624H35.2203C35.6283 53.624 35.9563 53.556 36.2043 53.42C36.4603 53.276 36.5883 53.024 36.5883 52.664C36.5883 52.376 36.5083 52.152 36.3483 51.992C36.1883 51.832 35.9683 51.752 35.6883 51.752C35.3843 51.752 35.1563 51.844 35.0043 52.028C34.8603 52.212 34.7763 52.44 34.7523 52.712H32.7483ZM39.99 57.44V55.784L43.782 50.36H46.074V55.664H47.058V57.44H46.074V59H44.022V57.44H39.99ZM44.166 52.616L42.15 55.664H44.166V52.616ZM50.2711 56.432C50.3911 57.064 50.7591 57.38 51.3751 57.38C51.7991 57.38 52.0991 57.192 52.2751 56.816C52.4511 56.44 52.5391 55.828 52.5391 54.98C52.3631 55.228 52.1231 55.42 51.8191 55.556C51.5151 55.692 51.1751 55.76 50.7991 55.76C50.2871 55.76 49.8311 55.656 49.4311 55.448C49.0311 55.232 48.7151 54.916 48.4831 54.5C48.2591 54.076 48.1471 53.564 48.1471 52.964C48.1471 52.372 48.2671 51.856 48.5071 51.416C48.7551 50.976 49.1031 50.636 49.5511 50.396C50.0071 50.156 50.5431 50.036 51.1591 50.036C52.3431 50.036 53.1711 50.404 53.6431 51.14C54.1151 51.876 54.3511 52.96 54.3511 54.392C54.3511 55.432 54.2551 56.292 54.0631 56.972C53.8791 57.644 53.5631 58.156 53.1151 58.508C52.6751 58.86 52.0711 59.036 51.3031 59.036C50.6951 59.036 50.1751 58.916 49.7431 58.676C49.3191 58.436 48.9911 58.12 48.7591 57.728C48.5351 57.336 48.4071 56.904 48.3751 56.432H50.2711ZM51.2671 54.14C51.6031 54.14 51.8711 54.04 52.0711 53.84C52.2711 53.632 52.3711 53.352 52.3711 53C52.3711 52.616 52.2671 52.32 52.0591 52.112C51.8511 51.904 51.5711 51.8 51.2191 51.8C50.8671 51.8 50.5871 51.908 50.3791 52.124C50.1791 52.332 50.0791 52.62 50.0791 52.988C50.0791 53.332 50.1791 53.612 50.3791 53.828C50.5871 54.036 50.8831 54.14 51.2671 54.14ZM56.8859 54.296C56.1339 53.896 55.7579 53.268 55.7579 52.412C55.7579 51.98 55.8699 51.588 56.0939 51.236C56.3179 50.876 56.6579 50.592 57.1139 50.384C57.5699 50.168 58.1299 50.06 58.7939 50.06C59.4579 50.06 60.0139 50.168 60.4619 50.384C60.9179 50.592 61.2579 50.876 61.4819 51.236C61.7059 51.588 61.8179 51.98 61.8179 52.412C61.8179 52.844 61.7139 53.22 61.5059 53.54C61.3059 53.86 61.0339 54.112 60.6899 54.296C61.1219 54.504 61.4539 54.792 61.6859 55.16C61.9179 55.52 62.0339 55.944 62.0339 56.432C62.0339 57 61.8899 57.492 61.6019 57.908C61.3139 58.316 60.9219 58.628 60.4259 58.844C59.9379 59.06 59.3939 59.168 58.7939 59.168C58.1939 59.168 57.6459 59.06 57.1499 58.844C56.6619 58.628 56.2739 58.316 55.9859 57.908C55.6979 57.492 55.5539 57 55.5539 56.432C55.5539 55.936 55.6699 55.508 55.9019 55.148C56.1339 54.78 56.4619 54.496 56.8859 54.296ZM59.8259 52.724C59.8259 52.396 59.7299 52.144 59.5379 51.968C59.3539 51.784 59.1059 51.692 58.7939 51.692C58.4819 51.692 58.2299 51.784 58.0379 51.968C57.8539 52.152 57.7619 52.408 57.7619 52.736C57.7619 53.048 57.8579 53.296 58.0499 53.48C58.2419 53.656 58.4899 53.744 58.7939 53.744C59.0979 53.744 59.3459 53.652 59.5379 53.468C59.7299 53.284 59.8259 53.036 59.8259 52.724ZM58.7939 55.184C58.4179 55.184 58.1139 55.288 57.8819 55.496C57.6499 55.696 57.5339 55.976 57.5339 56.336C57.5339 56.672 57.6459 56.948 57.8699 57.164C58.1019 57.38 58.4099 57.488 58.7939 57.488C59.1779 57.488 59.4779 57.38 59.6939 57.164C59.9179 56.948 60.0299 56.672 60.0299 56.336C60.0299 55.984 59.9139 55.704 59.6819 55.496C59.4579 55.288 59.1619 55.184 58.7939 55.184Z" fill="url(#paint2_linear)"/>
<circle cx="43.8381" cy="52.6062" r="38.8381" stroke="#FAA9C6" stroke-width="10"/>
<path d="M41.2094 13.8571C51.4863 13.1599 61.6192 16.5738 69.379 23.3477C77.1389 30.1215 81.89 39.7006 82.5872 49.9774C83.2843 60.2543 79.8705 70.3873 73.0966 78.1471C66.3228 85.9069 56.7437 90.658 46.4669 91.3552" stroke="url(#paint3_linear)" stroke-width="10" stroke-linecap="round"/>
<defs>
<linearGradient id="paint0_linear" x1="22.8958" y1="49.3933" x2="139.211" y2="92.3988" gradientUnits="userSpaceOnUse">
<stop stop-color="#FD749B"/>
<stop offset="1" stop-color="#281AC8"/>
</linearGradient>
<linearGradient id="paint1_linear" x1="57.44" y1="49.0849" x2="73.6582" y2="-18.2518" gradientUnits="userSpaceOnUse">
<stop stop-color="#FD749B"/>
<stop offset="1" stop-color="#281AC8"/>
</linearGradient>
<linearGradient id="paint2_linear" x1="11.6428" y1="53.3986" x2="21.0851" y2="81.3722" gradientUnits="userSpaceOnUse">
<stop stop-color="#FC58B3"/>
<stop offset="1" stop-color="#FEAE68"/>
</linearGradient>
<linearGradient id="paint3_linear" x1="48.2219" y1="-5.03282" x2="53.1685" y2="150.284" gradientUnits="userSpaceOnUse">
<stop stop-color="#FD749B"/>
<stop offset="1" stop-color="#281AC8"/>
</linearGradient>
</defs>
</svg>
